<?xml version="1.0" encoding="UTF-8" standalone="no"?>
<!-- Created with Inkscape (http://www.inkscape.org/) -->

<svg
   width="512"
   height="512"
   viewBox="0 0 135.46666 135.46667"
   version="1.1"
   id="svg1"
   sodipodi:docname="Unnamed document 1"
   xmlns:inkscape="http://www.inkscape.org/namespaces/inkscape"
   xmlns:sodipodi="http://sodipodi.sourceforge.net/DTD/sodipodi-0.dtd"
   xmlns="http://www.w3.org/2000/svg"
   xmlns:svg="http://www.w3.org/2000/svg">
  <sodipodi:namedview
     id="namedview1"
     pagecolor="#838383"
     bordercolor="#666666"
     borderopacity="1.0"
     inkscape:showpageshadow="2"
     inkscape:pageopacity="0.0"
     inkscape:pagecheckerboard="0"
     inkscape:deskcolor="#d1d1d1"
     inkscape:document-units="mm" />
  <defs
     id="defs1" />
  <g
     inkscape:label="Layer 1"
     inkscape:groupmode="layer"
     id="layer1">
    <g
       id="g8"
       transform="matrix(1.4905894,0,0,1.4905894,-33.229384,-21.873352)"
       style="fill:#BC2020;fill-opacity:1;stroke-width:0.670876">
      <path
         id="rect1"
         style="fill:#BC2020;fill-opacity:1;stroke-width:0.798758;paint-order:markers stroke fill"
         d="m 38.64467,30.775382 c -1.661999,0 -3.167014,1.34625 -2.999817,2.999817 l 6.867281,67.916271 c 0.167142,1.65302 1.051678,2.99981 2.357995,2.99981 h 45.726408 c 1.306318,0 2.19085,-1.34674 2.357996,-2.99981 l 6.867281,-67.916271 c 0.167197,-1.653567 -1.337819,-2.999817 -2.999817,-2.999817 z m 8.324039,9.497612 c 1.823843,0 3.384884,1.398723 3.500045,3.135726 l 3.072681,46.344458 c 0.115161,1.737002 -0.967524,3.135209 -2.427242,3.135209 -1.459719,0 -2.762711,-1.398207 -2.921269,-3.135209 L 43.962691,43.40872 c -0.158558,-1.737003 1.182175,-3.135726 3.006018,-3.135726 z m 10.382312,0 c 1.823843,0 3.329807,1.398723 3.376538,3.135726 l 1.246953,46.344458 c 0.04673,1.737002 -1.091031,3.135209 -2.550749,3.135209 -1.459718,0 -2.707634,-1.398207 -2.797762,-3.135209 L 54.221497,43.40872 c -0.09013,-1.737003 1.305681,-3.135726 3.129524,-3.135726 z m 10.382312,0 c 1.823843,0 3.27473,1.398723 3.253032,3.135726 l -0.578776,46.344458 c -0.0217,1.737002 -1.214537,3.135209 -2.674256,3.135209 -1.459718,0 -2.652557,-1.398207 -2.674255,-3.135209 L 64.480302,43.40872 c -0.0217,-1.737003 1.429188,-3.135726 3.253031,-3.135726 z m 10.382312,0 c 1.823843,0 3.219653,1.398723 3.129525,3.135726 l -2.404504,46.344458 c -0.09013,1.737002 -1.338044,3.135209 -2.797762,3.135209 -1.459719,0 -2.597481,-1.398207 -2.550749,-3.135209 L 74.739107,43.40872 c 0.04673,-1.737003 1.552695,-3.135726 3.376538,-3.135726 z m 10.382312,0 c 1.823843,0 3.164577,1.398723 3.006018,3.135726 l -4.230232,46.344458 c -0.158558,1.737002 -1.461551,3.135209 -2.921269,3.135209 -1.459718,0 -2.542403,-1.398207 -2.427242,-3.135209 L 84.997913,43.40872 c 0.115161,-1.737003 1.676201,-3.135726 3.500044,-3.135726 z" />
      <path
         id="rect2"
         style="fill:#BC2020;fill-opacity:1;stroke-width:0.798758;paint-order:markers stroke fill"
         d="m 65.171216,15.538586 c -1.661999,0 -2.999817,1.337819 -2.999817,2.999817 v 1.371478 a 1.6903505,1.6903505 135 0 1 -1.690351,1.690351 H 35.296037 c -1.605275,0 -2.897498,1.292739 -2.897498,2.898014 v 2.195215 c 0,1.605275 1.292223,2.898014 2.897498,2.898014 h 64.874593 c 1.60527,0 2.89801,-1.292739 2.89801,-2.898014 v -2.195215 c 0,-1.605275 -1.29274,-2.898014 -2.89801,-2.898014 H 74.985618 a 1.6903505,1.6903505 45 0 1 -1.69035,-1.690351 v -1.371478 c 0,-1.661998 -1.337819,-2.999817 -2.999817,-2.999817 z"
         sodipodi:nodetypes="sscsssssssscsss" />
    </g>
  </g>
</svg>
